<?xml version="1.0" encoding="UTF-8"?>
<svg version="1.1" xmlns="http://www.w3.org/2000/svg" width="1024" height="512">
<path d="M0 0 C337.92 0 675.84 0 1024 0 C1024 168.96 1024 337.92 1024 512 C686.08 512 348.16 512 0 512 C0 343.04 0 174.08 0 0 Z " fill="#000000" transform="translate(0,0)"/>
<path d="M0 0 C4.40844537 0.46358924 8.48948823 1.87141895 12.66430664 3.30981445 C13.5956543 3.62853516 14.52700195 3.94725586 15.48657227 4.27563477 C22.47895123 6.7589324 28.48929779 9.64234994 34.35180664 14.24731445 C35.91415039 15.43260742 35.91415039 15.43260742 37.50805664 16.6418457 C56.774113 31.75319907 68.94888036 53.86918827 75.35180664 77.24731445 C76.58415039 77.35688477 77.81649414 77.46645508 79.08618164 77.5793457 C98.3974553 79.38519702 112.66880802 82.51423335 125.57055664 97.8918457 C127.12923071 99.79083027 128.67750656 101.69839891 130.21508789 103.61450195 C131.9580908 105.76218744 133.7473831 107.82243753 135.60180664 109.87231445 C141.27769539 116.52844026 144.82628784 123.32113688 144.35180664 132.24731445 C142.71355098 138.39077319 139.69626043 142.02191957 134.35180664 145.24731445 C125.04791517 149.65719061 116.15462488 151.88371384 105.94165039 152.88793945 C97.97728053 153.46777179 97.97728053 153.46777179 91.35180664 157.24731445 C91.06853364 160.33263327 91.06853364 160.33263327 91.16430664 163.87231445 C91.17397461 165.65508789 91.17397461 165.65508789 91.18383789 167.47387695 C91.29521381 171.24164743 91.29521381 171.24164743 91.84790039 174.92700195 C94.62840798 195.719271 93.87871612 219.78898973 80.92016602 237.16723633 C78.84377758 239.80255197 76.72002263 242.39435051 74.56958008 244.96948242 C63.60382887 258.21305878 64.48858696 272.72853564 65.35180664 289.24731445 C66.50136046 301.04379279 68.89700692 312.17236251 75.35180664 322.24731445 C76.37274414 323.88700195 76.37274414 323.88700195 77.41430664 325.55981445 C81.26526162 329.08302858 85.52009489 331.16107169 90.19555664 333.4387207 C94.15242624 335.70608534 97.69260076 337.98274837 99.01586914 342.52856445 C98.93970295 346.85480387 98.77019101 348.70454554 96.03930664 352.24731445 C91.12914119 355.90139107 86.26026882 355.84934117 80.35180664 355.24731445 C68.8802901 352.06822974 59.72785 342.93029326 53.35180664 333.24731445 C46.16609099 319.97865742 41.76231142 305.49046907 37.81933594 290.99804688 C32.65185313 272.08034813 27.13198768 254.10780898 9.35180664 243.24731445 C2.95943084 240.10352308 -4.55794214 238.73812297 -11.64819336 239.24731445 C-15.42432159 240.73541483 -18.79298995 242.53690763 -20.64819336 246.24731445 C-19.44936523 246.35946289 -19.44936523 246.35946289 -18.22631836 246.47387695 C-8.11499857 247.68438707 1.13541641 250.36443805 8.28930664 257.99731445 C16.0693012 267.90257582 19.52195082 278.73121537 18.35180664 291.24731445 C17.46172074 294.85562678 16.05522769 297.95334965 14.35180664 301.24731445 C13.92383789 302.15739258 13.49586914 303.0674707 13.05493164 304.00512695 C7.44096787 314.85686105 -1.81727526 324.07470886 -11.64819336 331.24731445 C-8.84374728 332.04044956 -6.3448799 332.37507559 -3.43383789 332.38916016 C-2.61263458 332.39619461 -1.79143127 332.40322906 -0.94534302 332.41047668 C0.37350388 332.4167231 0.37350388 332.4167231 1.71899414 332.4230957 C3.59270332 332.44629137 5.46640128 332.4704086 7.34008789 332.49536133 C10.28498895 332.53047229 13.22947559 332.55982661 16.17456055 332.57324219 C19.02321073 332.58874732 21.87066212 332.62896653 24.71899414 332.6730957 C26.03176834 332.67023308 26.03176834 332.67023308 27.37106323 332.66731262 C32.83027288 332.77610615 36.04399621 333.57551448 40.35180664 337.24731445 C42.97875787 341.27530634 44.15013194 344.45736265 43.35180664 349.24731445 C41.66143173 352.1249765 39.76499673 354.73702072 36.52435303 355.90719604 C33.93406288 356.31271345 31.46407345 356.37456178 28.84106445 356.37670898 C27.72786331 356.37979065 26.61466217 356.38287231 25.46772766 356.38604736 C23.65464363 356.38311676 23.65464363 356.38311676 21.80493164 356.38012695 C20.54122238 356.38171814 19.27751312 356.38330933 17.97550964 356.38494873 C13.85090435 356.38753107 9.72639781 356.38162476 5.60180664 356.37231445 C4.90448048 356.37089699 4.20715431 356.36947952 3.48869705 356.3680191 C-4.94093517 356.35034905 -13.37042824 356.31774439 -21.79996204 356.27375221 C-26.00412349 356.25260926 -30.20814251 356.24302548 -34.41235352 356.24145508 C-39.16789396 356.2383264 -43.92220441 356.20721949 -48.67736816 356.14764404 C-50.35592692 356.13086088 -52.03461813 356.12410289 -53.71325684 356.12774658 C-56.0067114 356.1304693 -58.29664341 356.09637977 -60.58959961 356.05200195 C-61.84458252 356.04152832 -63.09956543 356.03105469 -64.39257812 356.02026367 C-68.96240783 354.93529323 -70.01303346 353.06676476 -72.64819336 349.24731445 C-74.081234 346.38123317 -73.95463491 344.43430662 -73.64819336 341.24731445 C-71.64819336 337.87231445 -71.64819336 337.87231445 -69.64819336 335.24731445 C-70.74131836 335.57731445 -71.83444336 335.90731445 -72.96069336 336.24731445 C-84.64410654 339.05051516 -95.23570258 336.71096694 -105.51538086 330.52075195 C-115.23347302 323.34295136 -121.11761789 312.9952178 -123.64819336 301.24731445 C-123.83585984 297.82694143 -123.2673971 295.31372089 -121.52319336 292.30981445 C-118.42186052 290.55239251 -116.15786023 290.8445658 -112.64819336 291.24731445 C-104.96548518 293.7816518 -98.28663317 299.60887464 -92.64819336 305.24731445 C-92.639394 304.36433434 -92.639394 304.36433434 -92.63041687 303.46351624 C-92.56569136 297.24833446 -92.48108636 291.03363337 -92.38574219 284.81884766 C-92.35281134 282.50999351 -92.32468427 280.201065 -92.30175781 277.89208984 C-92.1332669 261.36205565 -91.79182293 245.01950019 -85.83569336 229.37231445 C-85.5763501 228.67017822 -85.31700684 227.96804199 -85.04980469 227.24462891 C-80.90908184 216.34660675 -74.90036305 207.33822323 -67.64819336 198.24731445 C-67.21845215 197.7078418 -66.78871094 197.16836914 -66.34594727 196.61254883 C-49.08859594 175.11821151 -28.05284241 162.50785493 -2.56347656 152.58081055 C13.01864805 146.40453725 22.6342091 137.03237088 29.53930664 121.68481445 C32.28681895 114.52288905 33.19607349 106.79460215 34.35180664 99.24731445 C33.63379883 99.26793945 32.91579102 99.28856445 32.17602539 99.30981445 C10.96941988 98.8872669 -7.15967818 85.50480578 -21.48266602 70.88232422 C-33.39069169 58.18165906 -44.88942599 40.31745337 -47.08569336 22.74731445 C-46.56149316 19.75188474 -46.06982688 19.0405494 -43.64819336 17.24731445 C-22.34330425 13.8544268 2.19820694 24.42782064 19.35180664 36.24731445 C22.79163942 38.80017465 26.08758472 41.4756933 29.35180664 44.24731445 C30.20387695 44.91375977 31.05594727 45.58020508 31.93383789 46.2668457 C34.00704343 47.96493166 35.68855554 49.58822916 37.41430664 51.62231445 C38.0034082 52.31325195 38.59250977 53.00418945 39.19946289 53.71606445 C39.90973633 54.55137695 40.62000977 55.38668945 41.35180664 56.24731445 C42.30768344 57.34207353 43.26480733 58.43574444 44.22290039 59.52856445 C60.35180664 78.00298519 60.35180664 78.00298519 60.35180664 82.24731445 C61.01180664 82.24731445 61.67180664 82.24731445 62.35180664 82.24731445 C50.88366499 51.77930146 36.87531374 33.11072 7.27490234 19.15673828 C5.19684325 18.17403292 3.12443834 17.18175683 1.05883789 16.1730957 C0.09941284 15.70770386 0.09941284 15.70770386 -0.87939453 15.23291016 C-4.62331811 13.1467515 -7.09443197 10.66632801 -8.64819336 6.68481445 C-8.64819336 4.24731445 -8.64819336 4.24731445 -7.71069336 1.93481445 C-5.12217244 -0.1830663 -3.2654321 -0.07479214 0 0 Z " fill="#FDFDFD" transform="translate(203.648193359375,53.752685546875)"/>
<path d="M0 0 C2.1875 1.125 2.1875 1.125 4.1875 3.125 C4.35527173 12.27349349 -0.07287214 20.10047835 -3.875 28.1875 C-4.54610526 29.63942756 -5.21603781 31.09189778 -5.88476562 32.54492188 C-7.51387724 36.07802215 -9.1587284 39.60337942 -10.8125 43.125 C-9.59175781 42.980625 -8.37101562 42.83625 -7.11328125 42.6875 C18.98384081 39.6986715 18.98384081 39.6986715 23.53515625 42.64453125 C24.35306641 43.37736328 24.35306641 43.37736328 25.1875 44.125 C25.09278726 48.10293495 24.29682694 50.49533628 21.5 53.25 C10.50208449 61.70823623 -9.31604811 63.125 -22.8125 63.125 C-23.19277344 64.383125 -23.57304688 65.64125 -23.96484375 66.9375 C-25.8676065 72.64022787 -28.59630962 77.80868881 -31.375 83.125 C-37.69257112 95.48730955 -42.93437564 108.13603524 -47.8125 121.125 C-48.11333496 121.9082666 -48.41416992 122.6915332 -48.72412109 123.49853516 C-51.61785338 131.08228792 -54.50858539 138.91311989 -52.8125 147.125 C-51.57782205 149.4229764 -51.57782205 149.4229764 -49.8125 151.125 C-41.33681467 152.48110965 -33.78680456 147.54465594 -27.0625 142.875 C-20.07795555 137.44257654 -14.53995152 130.70868109 -9.015625 123.8515625 C-6.87632825 121.20399312 -4.71520323 118.58440377 -2.5 116 C-1.57767578 114.91332031 -1.57767578 114.91332031 -0.63671875 113.8046875 C1.33102756 111.99284401 2.57245048 111.50600059 5.1875 111.125 C7.18956975 114.06922023 7.56407276 116.52538463 6.90234375 120.02734375 C1.47252958 135.96073288 -17.4543895 155.27882034 -31.8125 163.125 C-41.7358187 167.52296127 -52.54723093 170.541595 -63.32421875 167.390625 C-67.63508649 165.44635193 -70.13281041 163.07401624 -72.8125 159.125 C-73.6981356 156.48722731 -74.43401265 154.00417739 -75.0625 151.3125 C-75.23523438 150.61962891 -75.40796875 149.92675781 -75.5859375 149.21289062 C-76.00630492 147.51974406 -76.41102527 145.82272557 -76.8125 144.125 C-77.60011719 144.95902344 -78.38773438 145.79304687 -79.19921875 146.65234375 C-90.42310922 158.33207972 -103.19630753 169.81575072 -120.0625 171.4375 C-124.71134756 171.05009604 -128.01405045 169.82520218 -131.8125 167.125 C-135.51815711 162.4691744 -136.94418722 158.90688936 -136.91015625 153.01953125 C-136.90693359 152.03662109 -136.90371094 151.05371094 -136.90039062 150.04101562 C-136.89201172 149.01685547 -136.88363281 147.99269531 -136.875 146.9375 C-136.87048828 145.90173828 -136.86597656 144.86597656 -136.86132812 143.79882812 C-136.8495401 141.24082734 -136.83308515 138.68294267 -136.8125 136.125 C-137.85148437 136.66769531 -138.89046875 137.21039063 -139.9609375 137.76953125 C-153.63979486 144.81412638 -153.63979486 144.81412638 -160.9921875 146.359375 C-163.47646277 147.40426331 -163.73261868 148.71193187 -164.8125 151.125 C-174.88281858 161.98825705 -190.7356221 172.75498163 -205.80859375 173.328125 C-207.2889947 173.34921709 -208.76948456 173.36470971 -210.25 173.375 C-211.35698242 173.4059375 -211.35698242 173.4059375 -212.48632812 173.4375 C-218.4160815 173.47966714 -222.33839754 172.15887071 -227.0078125 168.3203125 C-234.97048876 159.77736024 -237.29538067 149.57919316 -237.8125 138.125 C-238.32554687 138.5375 -238.83859375 138.95 -239.3671875 139.375 C-244.86187098 143.51913838 -250.29750006 146.25061154 -256.625 148.8125 C-263.7190232 151.74848714 -268.707279 155.21756443 -274.11816406 160.61401367 C-284.36512466 170.78510672 -296.99149526 178.12977506 -311.6875 178.5625 C-316.4558764 178.39199786 -319.83219458 177.94033798 -323.8125 175.125 C-324.8025 174.485625 -325.7925 173.84625 -326.8125 173.1875 C-330.64635089 169.90854858 -332.42974336 165.36416888 -334.515625 160.8671875 C-335.78897784 158.00241969 -335.78897784 158.00241969 -337.8125 155.125 C-338.53953125 156.08599609 -338.53953125 156.08599609 -339.28125 157.06640625 C-346.29364983 166.1150991 -354.05598349 174.8617134 -365.8125 177.125 C-379.14400387 178.26166903 -379.14400387 178.26166903 -384 174.9375 C-389.4656017 169.4718983 -390.58233209 164.57837029 -391.8125 157.125 C-392.41835938 157.7540625 -393.02421875 158.383125 -393.6484375 159.03125 C-403.99803885 169.60376584 -414.49203275 180.0824788 -430.125 180.6875 C-436.22172484 180.38505151 -440.09235299 179.12213325 -444.30859375 174.4765625 C-450.50407783 166.43822905 -449.52334855 155.82838819 -448.8125 146.125 C-445.66972791 122.15062929 -428.19774304 97.80884312 -409.8125 83.125 C-397.7794082 74.53417367 -385.8338236 69.24509657 -370.8125 71.125 C-368.24899874 72.00381053 -366.02239991 72.9939878 -363.6796875 74.34765625 C-361.28551653 75.3443927 -360.19634409 75.06676557 -357.8125 74.125 C-357.07 73.444375 -356.3275 72.76375 -355.5625 72.0625 C-352.55061357 69.9404891 -350.4971595 69.46725957 -346.8125 69.68359375 C-343.06127735 70.51150031 -341.26075325 72.25875229 -338.8125 75.125 C-337.73728035 79.77148491 -337.33638963 81.98559056 -339.18359375 86.40625 C-339.86550781 87.4684375 -340.54742188 88.530625 -341.25 89.625 C-342.00138664 90.84129364 -342.74863818 92.06014947 -343.4921875 93.28125 C-344.07178223 94.22291016 -344.07178223 94.22291016 -344.66308594 95.18359375 C-346.57376586 98.41080843 -348.22441839 101.75924351 -349.875 105.125 C-350.20685303 105.80087158 -350.53870605 106.47674316 -350.88061523 107.1730957 C-351.54086859 108.51830743 -352.20062615 109.86376262 -352.85986328 111.20947266 C-353.74507699 112.98942825 -354.66606743 114.75146805 -355.58984375 116.51171875 C-359.22671198 123.48032113 -362.35355349 130.57033138 -365.25 137.875 C-365.60449219 138.73826904 -365.95898438 139.60153809 -366.32421875 140.4909668 C-368.64714362 146.52239053 -369.25410222 151.68260033 -368.8125 158.125 C-363.31646506 158.97054384 -360.33615778 156.96941754 -356.0390625 153.88671875 C-352.64641318 151.20235937 -349.72007673 148.32047854 -346.8125 145.125 C-346.23081055 144.51358154 -345.64912109 143.90216309 -345.04980469 143.2722168 C-338.42763223 135.74177705 -334.79495201 127.08214683 -330.83178711 117.96353149 C-328.77784942 113.23875804 -326.67557701 108.53544521 -324.58203125 103.828125 C-323.96474655 102.43422295 -323.96474655 102.43422295 -323.33499146 101.01216125 C-319.9656583 93.41697273 -316.44908587 85.9083912 -312.8125 78.4375 C-312.2976001 77.37789063 -311.7827002 76.31828125 -311.25219727 75.2265625 C-310.25741947 73.18356381 -309.26129274 71.14122127 -308.26367188 69.09960938 C-305.84336156 64.13846185 -303.44968588 59.16465557 -301.0625 54.1875 C-300.61285889 53.25220459 -300.16321777 52.31690918 -299.69995117 51.35327148 C-297.12321681 45.9645213 -294.65301455 40.54039135 -292.25366211 35.07055664 C-288.38465972 26.25880537 -284.16874428 18.13069274 -278.8125 10.125 C-278.12285156 9.06796875 -277.43320312 8.0109375 -276.72265625 6.921875 C-274.62290413 3.84739133 -273.02446402 2.02297874 -269.8125 0.125 C-266.28843912 -0.48998317 -263.08503947 -0.51126974 -259.8125 1.125 C-257.23650515 6.2769897 -258.75047078 11.42118077 -260.453125 16.59765625 C-262.77840688 23.37839499 -265.81349547 29.71379575 -269 36.125 C-270.16334193 38.50428828 -271.32478703 40.88450491 -272.484375 43.265625 C-273.05091797 44.42771484 -273.61746094 45.58980469 -274.20117188 46.78710938 C-280.26382221 59.3459814 -285.78703367 72.11791068 -290.8125 85.125 C-290.420625 84.7125 -290.02875 84.3 -289.625 83.875 C-282.41378305 76.9124457 -271.5147396 69.75044665 -261.1875 69.4375 C-254.51887077 70.08537353 -250.0924207 73.05667286 -245.8125 78.125 C-243.05237285 82.60789107 -241.24457723 86.83205391 -240.8125 92.125 C-240.71775391 93.05505859 -240.71775391 93.05505859 -240.62109375 94.00390625 C-239.90980263 106.46297332 -245.92940858 121.80036287 -252.8125 132.125 C-236.19947828 122.30247195 -227.03418474 111.20418046 -219.5625 93.5 C-218.61339165 91.3007336 -217.66416953 89.1015163 -216.71484375 86.90234375 C-216.23644043 85.78456543 -215.75803711 84.66678711 -215.26513672 83.51513672 C-212.91045328 78.01982003 -210.52343555 72.5388442 -208.125 67.0625 C-207.66673828 66.01570068 -207.20847656 64.96890137 -206.73632812 63.89038086 C-203.86633207 57.38281966 -200.83601048 50.99262363 -197.58911133 44.66577148 C-195.31925901 40.22130132 -193.27612899 35.71235266 -191.3125 31.125 C-188.90036023 25.50452723 -186.3482478 19.97697971 -183.625 14.5 C-183.30402344 13.84902344 -182.98304688 13.19804687 -182.65234375 12.52734375 C-177.28638238 1.86194119 -177.28638238 1.86194119 -173.8125 0.125 C-169.66768004 -0.14679147 -166.74759243 -0.18669748 -162.8125 1.125 C-160.8125 3.125 -160.8125 3.125 -160.3125 6.4375 C-160.42627419 8.00473944 -160.6013658 9.56788524 -160.8125 11.125 C-160.9465625 12.11628906 -161.080625 13.10757812 -161.21875 14.12890625 C-162.9069844 23.71407919 -166.55982619 31.95866948 -170.68457031 40.70703125 C-171.83719391 43.17793689 -172.95118584 45.66304694 -174.0546875 48.15625 C-178.69177741 58.63007496 -183.58773054 68.9317168 -188.8125 79.125 C-186.86215652 79.125 -185.24485378 76.69600248 -183.9375 75.4375 C-176.2731615 68.53224933 -167.24154845 64.73425342 -156.86328125 64.91015625 C-152.23150606 65.39538984 -148.78957158 67.3573009 -145.1875 70.1875 C-138.98680955 77.85677503 -137.01449057 84.35441277 -137.40234375 94.26953125 C-138.72837999 106.73427186 -143.98829205 117.23995116 -149.8125 128.125 C-132.54552334 119.90899177 -125.65051801 109.27117596 -117.171875 92.6328125 C-105.47363149 69.6787105 -105.47363149 69.6787105 -97.8125 67.125 C-93.57095094 66.64850922 -90.02885722 66.44265326 -86.25 68.5625 C-84.10002816 72.39505849 -84.25102236 75.81504248 -84.8125 80.125 C-85.98076782 83.54292776 -87.59622193 86.64019279 -89.3125 89.8125 C-89.76665283 90.68608154 -90.22080566 91.55966309 -90.6887207 92.4597168 C-93.9385853 98.6582057 -97.41508536 104.71272757 -100.93359375 110.76171875 C-112.18378551 130.42035691 -112.18378551 130.42035691 -112.8125 152.125 C-96.45263426 150.14405592 -87.45490401 138.41049953 -77.8125 126.125 C-77.34263672 125.55426758 -76.87277344 124.98353516 -76.38867188 124.39550781 C-72.04172595 118.93245415 -69.23940466 113.11847457 -66.4375 106.75 C-65.96344727 105.69578857 -65.48939453 104.64157715 -65.00097656 103.55541992 C-62.83098702 98.71909786 -60.69715441 93.86713849 -58.5703125 89.01171875 C-57.90144949 87.48680022 -57.23219739 85.96205228 -56.5625 84.4375 C-56.08997803 83.36000488 -56.08997803 83.36000488 -55.60791016 82.26074219 C-52.68883719 75.68559505 -49.35248969 69.38635676 -45.8125 63.125 C-46.81152344 63.13660156 -47.81054688 63.14820313 -48.83984375 63.16015625 C-50.13019531 63.16917969 -51.42054688 63.17820312 -52.75 63.1875 C-54.03777344 63.19910156 -55.32554687 63.21070313 -56.65234375 63.22265625 C-59.8125 63.125 -59.8125 63.125 -60.8125 62.125 C-61.31979965 58.8909647 -61.54659216 56.385142 -59.84765625 53.46875 C-56.15861176 49.63292655 -53.02775663 48.9766911 -47.79663086 48.45874023 C-42.66503541 47.83572608 -38.44916533 47.19608307 -35.10351562 42.96240234 C-31.80846151 37.26356195 -29.43149577 31.16255573 -27.02246094 25.04931641 C-25.29429914 20.87257669 -23.18811714 16.97653468 -20.9375 13.0625 C-20.59203125 12.43956055 -20.2465625 11.81662109 -19.890625 11.17480469 C-15.02436356 2.61640884 -10.65363953 -3.31446563 0 0 Z " fill="#FCFCFC" transform="translate(916.8125,252.875)"/>
<path d="M0 0 C4.6335351 3.2326989 7.31016591 6.01720718 8.453125 11.64453125 C8.86428523 15.83015193 8.09377795 18.90116344 6.625 22.875 C6.37113525 23.56432617 6.11727051 24.25365234 5.85571289 24.96386719 C2.21935484 34.52869998 -2.02833335 43.87296433 -6.19750977 53.21484375 C-14.37265319 69.85943957 -14.37265319 69.85943957 -16.3125 87.875 C-5.31012192 86.5427705 2.62972983 81.32791079 9.6875 72.875 C14.30018649 66.80404266 17.40739356 60.4202098 20.1875 53.375 C28.88839801 31.35649931 45.91699642 10.88862083 67.6875 0.875 C77.48666976 -2.55470942 89.18188179 -2.58419927 98.6875 1.875 C100.4609375 3.48046875 100.4609375 3.48046875 101.6875 4.875 C104.67232029 3.54171836 104.67232029 3.54171836 106.9375 1.25 C109.36589681 -0.65802607 111.60943346 -0.59530171 114.62109375 -0.484375 C117.97187261 0.09836915 120.11584447 1.73195372 122.6875 3.875 C124.67454255 6.85556383 125.02300299 7.67259943 125.125 11.0625 C125.16496094 11.77792969 125.20492188 12.49335937 125.24609375 13.23046875 C124.54619134 16.54399272 123.0157689 18.65374727 121.16967773 21.46264648 C118.16949271 26.34566876 115.89214633 31.61263322 113.5 36.8125 C113.22080719 37.4188327 112.94161438 38.02516541 112.65396118 38.64987183 C108.58160785 47.51534258 104.61938265 56.42807224 100.875 65.4375 C100.44872314 66.42806396 100.02244629 67.41862793 99.58325195 68.43920898 C96.88721518 75.09598529 96.16152282 80.71455772 96.6875 87.875 C110.9714445 85.94284753 120.55708733 76.85440511 129.17578125 65.7421875 C130.68843284 63.71345477 132.18790232 61.67480399 133.671875 59.625 C136.17710378 56.20701345 138.87795945 53.04473806 141.6875 49.875 C145.4954274 52.25400454 145.4954274 52.25400454 146.32421875 54.93359375 C146.61687133 68.64324163 135.57013966 79.46491615 126.6875 88.875 C117.22009994 98.46456006 107.05893886 105.06822116 93.25 105.3125 C87.72313365 105.21965738 83.64354827 104.9093828 79.203125 101.4921875 C74.59629249 96.57664971 73.50169603 91.4359971 72.6875 84.875 C71.8625 85.57625 71.0375 86.2775 70.1875 87 C59.26797831 96.04975154 46.27191113 105.4991089 31.54296875 105.265625 C26.71669149 104.60539555 23.78910402 102.57306633 20.6875 98.875 C15.6875 90.20426829 15.6875 90.20426829 15.6875 85.875 C14.54121665 86.87448412 13.39551147 87.87463131 12.25 88.875 C11.51394531 89.51308594 10.77789063 90.15117187 10.01953125 90.80859375 C8.51055465 92.14569362 7.02644011 93.51162145 5.57421875 94.91015625 C-2.86650639 102.91881502 -12.40949362 108.02817761 -24.125 108.1875 C-24.82431641 108.21650391 -25.52363281 108.24550781 -26.24414062 108.27539062 C-31.3861757 108.33792239 -34.22349917 107.23338356 -38.3125 103.875 C-42.57969426 97.98921482 -42.99188256 91.95588868 -42.3125 84.875 C-39.26878172 71.4478542 -33.26037592 58.68435905 -27.35791016 46.30419922 C-24.98075538 41.31616461 -22.67038048 36.30435939 -20.4375 31.25 C-20.15140869 30.6113501 -19.86531738 29.9727002 -19.57055664 29.31469727 C-17.77550704 25.22043124 -16.45339364 21.18381189 -15.3125 16.875 C-38.4968096 24.04105933 -52.690515 50.98665082 -64.75585938 70.38427734 C-66.05448706 72.4621631 -67.3702273 74.5260774 -68.703125 76.58203125 C-72.46156486 82.46384166 -75.52310807 88.39750252 -78.375 94.75 C-81.78414998 102.30869611 -85.37006355 108.49523981 -93.3125 111.875 C-99.53929368 112.42120997 -99.53929368 112.42120997 -102.015625 110.671875 C-103.74944578 108.26959319 -103.6165867 106.74443953 -103.5 103.8125 C-103.45939453 102.49572266 -103.45939453 102.49572266 -103.41796875 101.15234375 C-103.38316406 100.40082031 -103.34835937 99.64929688 -103.3125 98.875 C-103.3125 98.215 -103.3125 97.555 -103.3125 96.875 C-103.90417969 97.41769531 -104.49585938 97.96039063 -105.10546875 98.51953125 C-105.89566406 99.23496094 -106.68585938 99.95039063 -107.5 100.6875 C-108.27730469 101.39519531 -109.05460938 102.10289062 -109.85546875 102.83203125 C-116.68961566 108.51447773 -124.13092228 110.47555579 -132.91796875 110.24609375 C-137.76945834 109.49423158 -140.60768132 106.97440579 -143.62890625 103.25390625 C-147.48220731 97.01075296 -146.67039574 89.95338244 -146.3125 82.875 C-146.78558594 83.46925781 -147.25867188 84.06351562 -147.74609375 84.67578125 C-149.14937231 86.43466646 -150.55589793 88.19096374 -151.96484375 89.9453125 C-153.50757807 91.87052171 -155.04172731 93.80264791 -156.56640625 95.7421875 C-164.08066883 105.17748764 -171.29063121 113.37311797 -183.64453125 115.4296875 C-188.89056098 115.80480989 -192.74162962 115.81711526 -197.328125 113.06640625 C-202.73651188 108.37755622 -207.13261353 103.15096657 -208.3125 95.875 C-209.92061584 72.43361908 -200.49599879 49.1679084 -185.4375 31.34765625 C-182.83589026 28.41663211 -180.08782154 25.64182132 -177.3125 22.875 C-176.62542969 22.12863281 -175.93835938 21.38226563 -175.23046875 20.61328125 C-166.43524282 11.20901728 -154.39253618 3.92695541 -141.46875 2.4296875 C-133.80522121 2.19978164 -127.93836108 3.00402785 -121.3125 6.875 C-119.98243224 7.5481582 -118.64995924 8.21664978 -117.3125 8.875 C-116.590625 7.946875 -115.86875 7.01875 -115.125 6.0625 C-112.76412551 3.27177442 -110.76582775 1.27277552 -107.3125 -0.125 C-103.06476664 -0.125 -100.89179494 0.48058642 -97.375 2.875 C-95.18370156 6.06234318 -94.40502971 8.19719706 -94.65234375 12.078125 C-96.03474389 17.93492086 -99.17053437 23.14681272 -101.99853516 28.4140625 C-118.04467584 55.6355598 -118.04467584 55.6355598 -125.4375 85.5 C-125.44007813 86.29664063 -125.44265625 87.09328125 -125.4453125 87.9140625 C-125.52820074 89.87853536 -125.52820074 89.87853536 -124.3125 90.875 C-118.4528654 91.06102015 -115.08796964 90.22230358 -110.5625 86.4375 C-100.38718882 76.48477375 -91.89700859 63.93017572 -86.3125 50.875 C-85.92320312 49.98554688 -85.53390625 49.09609375 -85.1328125 48.1796875 C-83.81768397 45.09386304 -82.56364329 41.98734818 -81.3125 38.875 C-80.66320357 37.29278682 -80.01342663 35.71077078 -79.36328125 34.12890625 C-75.89767351 25.64236216 -72.58847481 17.23827504 -70.1015625 8.40625 C-69.10989821 5.22506952 -68.29426288 2.63859335 -65.625 0.5625 C-62.15294182 -0.46973351 -59.79940078 -0.04260547 -56.3125 0.875 C-52.49532737 4.01356416 -49.68609663 7.10941454 -49.01171875 12.1015625 C-48.98052848 18.48517102 -50.16726652 23.87345396 -52.3125 29.875 C-51.77882813 29.18535156 -51.24515625 28.49570313 -50.6953125 27.78515625 C-39.58716919 13.77505855 -19.84754801 -6.74067668 0 0 Z " fill="#FCFCFC" transform="translate(749.3125,102.125)"/>
<path d="M0 0 C2.4876499 2.17623024 4.82513986 4.4165294 7.12109375 6.79296875 C8.01441406 7.70755859 8.01441406 7.70755859 8.92578125 8.640625 C16.98860914 17.44555396 19.58845316 27.54588202 19.37109375 39.296875 C17.72178704 62.36139846 5.39408315 82.13111274 -11.578125 97.1875 C-26.4376793 109.02125942 -44.04205428 115.81608983 -61.87890625 121.79296875 C-59.8932205 125.13605686 -57.90323433 128.47654644 -55.90966797 131.81494141 C-54.90898818 133.4925377 -53.9114756 135.17202195 -52.9140625 136.8515625 C-31.3037253 173.63015788 -31.3037253 173.63015788 2.57421875 197.9609375 C9.95986783 199.69347412 17.58997033 199.14746724 25.12109375 198.79296875 C25.29422083 204.20507183 24.76376878 206.61721932 21.12109375 210.79296875 C10.61788631 217.845664 -0.83001663 218.3083852 -13.12109375 216.25 C-33.90224332 209.68266342 -50.10862983 187.50954723 -60.87890625 169.79296875 C-61.40194336 168.9431543 -61.92498047 168.09333984 -62.46386719 167.21777344 C-69.4430032 155.83738047 -75.90841917 144.25770231 -81.83398438 132.29223633 C-85.05055136 125.91508691 -87.86849377 121.7999104 -93.87890625 117.79296875 C-94.28399414 118.87227661 -94.28399414 118.87227661 -94.69726562 119.97338867 C-95.87365652 122.78044206 -97.23934857 125.28639765 -98.78515625 127.90625 C-108.3411112 144.36082451 -117.3632903 161.24454286 -122.08129883 179.79907227 C-122.87890625 181.79296875 -122.87890625 181.79296875 -125.87890625 183.79296875 C-131.8471895 184.49511972 -135.92531526 182.91316169 -140.87890625 179.79296875 C-142.87890625 177.79296875 -142.87890625 177.79296875 -143.15234375 174.171875 C-143.03024444 169.72125501 -141.97672647 165.90745206 -140.50390625 161.73046875 C-140.24206543 160.96879395 -139.98022461 160.20711914 -139.71044922 159.42236328 C-134.82552696 145.61907134 -128.69352071 132.29961008 -122.10971069 119.23558044 C-119.48069895 114.01521435 -116.9086996 108.7694106 -114.36328125 103.5078125 C-113.58512416 101.90055316 -112.8069666 100.29329405 -112.02880859 98.68603516 C-111.44060333 97.47092255 -111.44060333 97.47092255 -110.84051514 96.23126221 C-103.82962186 81.76058918 -96.71653988 67.37115859 -89.14599609 53.18310547 C-87.87866666 50.79251681 -86.63541647 48.39078965 -85.3984375 45.984375 C-81.36976127 38.17907391 -77.20408279 30.8131617 -71.87890625 23.79296875 C-71.26015625 22.86484375 -70.64140625 21.93671875 -70.00390625 20.98046875 C-65.14707928 15.98079393 -58.35813636 12.68255335 -51.37890625 12.54296875 C-50.60546875 12.5171875 -49.83203125 12.49140625 -49.03515625 12.46484375 C-46.87890625 12.79296875 -46.87890625 12.79296875 -45.03515625 13.87109375 C-43.14230003 17.01732774 -44.05012752 19.31137424 -44.87890625 22.79296875 C-45.90412929 25.27035703 -46.95318438 27.55575211 -48.19140625 29.91796875 C-48.54404541 30.60914795 -48.89668457 31.30032715 -49.26000977 32.01245117 C-51.65613638 36.64031957 -54.2306139 41.1454547 -56.86938477 45.63818359 C-63.01694723 56.12025989 -68.47122582 66.857047 -73.75390625 77.79296875 C-74.11435028 78.53882233 -74.47479431 79.2846759 -74.84616089 80.0531311 C-79.2851769 89.2565314 -83.63038254 98.49995444 -87.87890625 107.79296875 C-74.28514413 105.82119656 -62.06866798 103.24436518 -49.87890625 96.79296875 C-48.77933594 96.21160156 -47.67976563 95.63023437 -46.546875 95.03125 C-27.12310026 84.15882263 -15.17576093 69.28553885 -8.87890625 47.79296875 C-6.89666403 37.76884514 -7.13430877 27.65223142 -12.1328125 18.49609375 C-17.40269579 10.85691689 -24.34134857 7.26408796 -33.2890625 5.30078125 C-46.64041566 3.41212411 -59.11179742 4.63459402 -71.87890625 8.79296875 C-72.5239209 8.99664062 -73.16893555 9.2003125 -73.83349609 9.41015625 C-94.76134569 16.15536716 -119.30971678 28.82228546 -129.81640625 48.98046875 C-133.65602898 57.05881478 -134.25192543 64.38489199 -134.50390625 73.23046875 C-134.54257812 74.34357422 -134.58125 75.45667969 -134.62109375 76.60351562 C-134.71481591 79.33317351 -134.80052919 82.06283438 -134.87890625 84.79296875 C-141.81881753 83.95582626 -147.05576471 82.46350805 -152.19140625 77.60546875 C-157.09326323 69.43570711 -157.61489917 62.13732571 -155.87890625 52.79296875 C-148.86513157 27.52019388 -123.58320423 12.36764874 -102.08544922 0.02099609 C-72.28873833 -16.5620373 -28.59281617 -21.91986585 0 0 Z " fill="#FCFCFC" transform="translate(546.87890625,47.20703125)"/>
<path d="M0 0 C9.33225188 8.82173482 15.19831841 20.48729527 16.2109375 33.3359375 C16.71508852 56.10233614 5.50671679 74.17811435 -9.71875 90.1328125 C-22.19670989 102.0113944 -46.9024108 118.3125 -65.02734375 118.3125 C-57.92503064 131.71841995 -50.53804896 144.74924597 -42.02734375 157.3125 C-41.39183594 158.26382813 -40.75632812 159.21515625 -40.1015625 160.1953125 C-29.05906124 176.39098102 -16.10101624 190.95460917 2.97265625 197.3125 C4.52687354 197.39356686 6.08432652 197.42006898 7.640625 197.41015625 C8.53330078 197.40693359 9.42597656 197.40371094 10.34570312 197.40039062 C11.73885742 197.38782227 11.73885742 197.38782227 13.16015625 197.375 C14.10052734 197.37048828 15.04089844 197.36597656 16.00976562 197.36132812 C18.33079337 197.34954626 20.65169269 197.33309558 22.97265625 197.3125 C22.23442274 203.79049901 19.82545215 207.08993734 14.97265625 211.3125 C6.54142671 216.25787666 -2.44092432 217.73612712 -12.02734375 215.6640625 C-39.22660769 207.37678677 -57.06642276 181.02935511 -70.02734375 157.3125 C-73.29670216 151.08719912 -76.50861271 144.83234454 -79.67382812 138.5534668 C-85.17254183 125.9323536 -85.17254183 125.9323536 -95.02734375 117.3125 C-107.84668208 139.1212015 -119.80206981 162.38047861 -125.02734375 187.3125 C-127.25542534 187.42103983 -129.48504307 187.49833307 -131.71484375 187.5625 C-132.95621094 187.60890625 -134.19757813 187.6553125 -135.4765625 187.703125 C-139.60471663 187.24898263 -141.12281549 186.20636944 -144.02734375 183.3125 C-146.87252208 178.78607992 -145.92436667 174.34049936 -145.02734375 169.3125 C-144.03999295 165.64085471 -142.81073773 162.07769719 -141.52734375 158.5 C-140.99004639 156.98732544 -140.99004639 156.98732544 -140.44189453 155.4440918 C-133.66924917 136.74071911 -124.54381338 119.11779288 -115.58251953 101.39501953 C-113.97804389 98.21478258 -112.39150502 95.02618526 -110.81152344 91.83374023 C-77.13464518 23.9102621 -77.13464518 23.9102621 -58.89453125 16.1796875 C-54.55632293 14.86758634 -50.50795812 14.87512983 -46.02734375 15.3125 C-46.94283699 31.18104946 -57.47226284 46.48939956 -65.52734375 59.8125 C-74.5586539 74.78736602 -82.23854452 90.66396084 -90.02734375 106.3125 C-63.10729849 100.92290266 -35.67214318 91.98492678 -19.24291992 68.20727539 C-11.75719226 56.71795932 -6.7342626 44.1903569 -8.02734375 30.3125 C-9.66635455 23.32563108 -12.31444497 16.86461058 -18.02734375 12.3125 C-33.50098855 2.89754992 -48.44541427 2.6354065 -65.90478516 6.7734375 C-88.87863899 12.60806704 -115.66823097 24.82092105 -128.5390625 45.7734375 C-134.61486773 57.08940712 -135.37429296 68.04035291 -132.02734375 80.3125 C-133.65015314 81.93530939 -135.41402241 81.5995901 -137.65234375 81.6875 C-142.2391954 81.62197355 -145.02274849 80.8684857 -148.55859375 77.94140625 C-154.94539788 70.85816869 -155.49022022 62.25958589 -155.296875 53.1328125 C-154.19897394 37.57125833 -141.15838686 25.13311852 -130.02734375 15.3125 C-95.86145688 -13.0738555 -38.18494573 -31.78400107 0 0 Z " fill="#FCFCFC" transform="translate(479.02734375,266.6875)"/>
<path d="M0 0 C1.88923518 3.90441938 0.12261674 8.36760488 -1.15625 12.3046875 C-10.13848915 34.71038404 -26.61333725 70.70513807 -50.0625 80.9375 C-53.375 80.9375 -53.375 80.9375 -56.0625 79.9375 C-59.84207932 74.67446804 -58.63716765 66.12495567 -58.0625 59.9375 C-54.16384633 39.77800603 -37.48206064 15.80361997 -20.84375 4.1171875 C-14.72978975 0.06802962 -7.31727114 -3.76950332 0 0 Z " fill="#020202" transform="translate(621.0625,120.0625)"/>
<path d="M0 0 C2.32106534 2.97386497 2.77320737 5.02346063 2.53515625 8.77734375 C-1.64844983 30.55041774 -16.95587311 55.10044051 -34.98828125 67.640625 C-43.67985749 73.13915642 -43.67985749 73.13915642 -48.0625 72.75 C-51.40200396 71.39998776 -52.22722554 70.63908823 -54 67.5625 C-56.22392719 52.01504505 -49.52755734 38.10759048 -41 25.5625 C-16.01812844 -7.67535321 -16.01812844 -7.67535321 0 0 Z " fill="#020202" transform="translate(840,117.4375)"/>
<path d="M0 0 C2.5 2.0625 2.5 2.0625 4 5 C5.05090075 23.39076313 -7.32988327 43.89599828 -18.625 57.625 C-24.05758765 63.53787536 -32.9068818 71.31550606 -41.12109375 72.23828125 C-47.41347709 72.43989218 -47.41347709 72.43989218 -50.5 70.125 C-54.04565118 65.10199416 -53.82665491 59.97344279 -53 54 C-51.16015774 49.47822304 -48.66049843 45.51911856 -46 41.4375 C-45.02740234 39.86838867 -45.02740234 39.86838867 -44.03515625 38.26757812 C-18.09333593 -3.11090954 -18.09333593 -3.11090954 0 0 Z " fill="#020202" transform="translate(753,337)"/>
<path d="M0 0 C3.34625468 6.69250937 0.45269437 15.54629291 -1.61328125 22.22265625 C-8.1057324 40.70266076 -19.64028894 59.21373559 -37 69 C-41.7157288 71.13086503 -44.85950971 71.57116559 -50 71 C-52.67545208 68.92652464 -53.69866594 67.40622561 -54.41015625 64.0859375 C-54.91092484 57.0238163 -51.97742453 51.23669265 -49 45 C-48.71060547 44.37109863 -48.42121094 43.74219727 -48.12304688 43.09423828 C-39.71648093 24.84877748 -28.13985903 8.51086813 -9.40625 -0.20703125 C-6.0114094 -1.32578554 -3.4380095 -0.79338681 0 0 Z " fill="#020202" transform="translate(652,343)"/>
<path d="M0 0 C0.680625 -0.00257813 1.36125 -0.00515625 2.0625 -0.0078125 C4 0.125 4 0.125 7 1.125 C9 4.125 9 4.125 8.83203125 7.296875 C7.8936543 11.61429009 6.49581034 15.35891038 4.6875 19.375 C4.34138672 20.14714844 3.99527344 20.91929687 3.63867188 21.71484375 C-2.42984395 34.77740294 -10.46483474 47.32330425 -20 58.125 C-20.4213623 58.61049316 -20.84272461 59.09598633 -21.27685547 59.59619141 C-34.23306691 74.47490778 -34.23306691 74.47490778 -42.25 77.25 C-45 77.125 -45 77.125 -47.375 75.875 C-51.06237133 69.63483314 -49.24008974 62.21035896 -47.5625 55.5 C-43.21476213 41.60548108 -35.64709099 29.65004803 -26.26953125 18.62060547 C-25.11855068 17.26466182 -23.99508471 15.88548132 -22.875 14.50390625 C-17.11968428 7.623055 -9.49581466 -0.03596899 0 0 Z " fill="#020202" transform="translate(538,338.875)"/>
<path d="M0 0 C22.36010794 8.06003891 42.44941134 18.48210252 53.3359375 40.4453125 C55.12006408 44.25647491 56.69455174 48.00206472 58 52 C42.88798037 49.97093123 29.37433506 44.46637033 19 33 C18.40832031 32.40058594 17.81664062 31.80117187 17.20703125 31.18359375 C10.06363724 23.68095749 0 10.73341296 0 0 Z " fill="#030303" transform="translate(183,89)"/>
<path d="M0 0 C2.875 2.4375 2.875 2.4375 5 5 C5.33 5.33 5.66 5.66 6 6 C6.07792575 13.4029466 3.92389166 17.99488912 -1.25 23.3125 C-4.83208441 25.51059725 -7.79416097 26.34252098 -12 26 C-15.43822695 24.79796362 -18.14343782 23.08001319 -20.4375 20.1875 C-21.45808744 16.21854884 -22.05060172 12.84627803 -19.9375 9.1328125 C-14.96511437 2.83625896 -8.2250088 -1.39669961 0 0 Z " fill="#F8F8F8" transform="translate(846,278)"/>
<path d="M0 0 C5.10633484 0.44262099 8.62051765 0.83175818 12.875 3.875 C13.61492187 4.38804687 14.35484375 4.90109375 15.1171875 5.4296875 C17.83566858 7.6969684 18.91533678 9.43154694 19.4375 12.9375 C19 16 19 16 16.9375 18.4375 C13.10453656 20.47631034 11.13392844 20.14831346 7 19 C3.15007662 16.43975318 2.76223416 12.04380591 1.8125 7.8125 C1.63525391 7.06291016 1.45800781 6.31332031 1.27539062 5.54101562 C0.84063737 3.69625181 0.41902724 1.84839934 0 0 Z " fill="#050505" transform="translate(294,152)"/>
</svg>
